<?xml version="1.0" encoding="UTF-8"?>
<svg version="1.1" xmlns="http://www.w3.org/2000/svg" width="32" height="32">
<path d="M0 0 C10.56 0 21.12 0 32 0 C32 10.56 32 21.12 32 32 C21.44 32 10.88 32 0 32 C0 21.44 0 10.88 0 0 Z " fill="#0F181C" transform="translate(0,0)"/>
<path d="M0 0 C0 1.32 0 2.64 0 4 C0.33 4.61875 0.66 5.2375 1 5.875 C2.31048089 8.65977188 2.13810692 10.96164777 2 14 C1.34 14 0.68 14 0 14 C-0.33 13.34 -0.66 12.68 -1 12 C-1.99 12.33 -2.98 12.66 -4 13 C-2.74458443 15.51083114 -1.49936512 15.87125446 1 17 C-5.10938712 23.41485648 -5.10938712 23.41485648 -10 23.625 C-14.44070874 23.27008955 -17.40481704 21.56798783 -21 19 C-21.93249614 16.20251159 -22.13476152 14.45679119 -22.125 11.5625 C-22.12757812 10.80066406 -22.13015625 10.03882813 -22.1328125 9.25390625 C-21.99781922 6.96299094 -21.83436697 5.14229357 -21 3 C-14.385491 -2.11479932 -7.84113249 -1.2545812 0 0 Z " fill="#9DA99B" transform="translate(27,5)"/>
<path d="M0 0 C1.875 2.9375 1.875 2.9375 3 6 C2.67 6.66 2.34 7.32 2 8 C1.01 8 0.02 8 -1 8 C-1.33 7.34 -1.66 6.68 -2 6 C-2.66 6 -3.32 6 -4 6 C-4.66 6.66 -5.32 7.32 -6 8 C-5.67 8.99 -5.34 9.98 -5 11 C-4.01 11 -3.02 11 -2 11 C-2.33 12.98 -2.66 14.96 -3 17 C-5.97 17 -8.94 17 -12 17 C-11.67 16.34 -11.34 15.68 -11 15 C-9.68 15 -8.36 15 -7 15 C-7 13.68 -7 12.36 -7 11 C-7.99 11 -8.98 11 -10 11 C-10 10.01 -10 9.02 -10 8 C-10.66 8 -11.32 8 -12 8 C-12 7.34 -12 6.68 -12 6 C-11.34 6 -10.68 6 -10 6 C-10.33 5.01 -10.66 4.02 -11 3 C-7.64910874 -0.67002377 -4.78773414 -1.7954003 0 0 Z " fill="#55A757" transform="translate(24,8)"/>
<path d="M0 0 C0 1.32 0 2.64 0 4 C0.33 4.61875 0.66 5.2375 1 5.875 C2.31048089 8.65977188 2.13810692 10.96164777 2 14 C1.34 14 0.68 14 0 14 C-0.45572917 12.01432292 -0.91145833 10.02864583 -1.3671875 8.04296875 C-1.98007723 5.72257026 -1.98007723 5.72257026 -4 3 C-7.58357241 2.74984127 -7.58357241 2.74984127 -11 3 C-11.33 3.99 -11.66 4.98 -12 6 C-12.66 6 -13.32 6 -14 6 C-14 6.66 -14 7.32 -14 8 C-14.66 8 -15.32 8 -16 8 C-16.33 8.66 -16.66 9.32 -17 10 C-17.66 10 -18.32 10 -19 10 C-21 5.25 -21 5.25 -21 3 C-13.45234889 -1.29105038 -8.60407399 -1.37665184 0 0 Z " fill="#8C9791" transform="translate(27,5)"/>
<path d="M0 0 C0.33 1.32 0.66 2.64 1 4 C1.66 4 2.32 4 3 4 C3.33 3.01 3.66 2.02 4 1 C4.99 1 5.98 1 7 1 C7 1.66 7 2.32 7 3 C6.34 3 5.68 3 5 3 C5 3.66 5 4.32 5 5 C5.66 5 6.32 5 7 5 C6 7 6 7 5 8 C5.66 8.33 6.32 8.66 7 9 C7 9.66 7 10.32 7 11 C4.69 11 2.38 11 0 11 C-0.33 11.66 -0.66 12.32 -1 13 C-1.96070434 10.11788698 -2.10581883 8.30149956 -2.0625 5.3125 C-2.05347656 4.50425781 -2.04445313 3.69601563 -2.03515625 2.86328125 C-2.02355469 2.24839844 -2.01195312 1.63351562 -2 1 C-1.34 0.67 -0.68 0.34 0 0 Z " fill="#79977A" transform="translate(7,11)"/>
<path d="M0 0 C0.33 0.66 0.66 1.32 1 2 C1.66 2.33 2.32 2.66 3 3 C2.01 3.495 2.01 3.495 1 4 C1.33 4.99 1.66 5.98 2 7 C2.99 7 3.98 7 5 7 C4.67 8.98 4.34 10.96 4 13 C1.03 13 -1.94 13 -5 13 C-4.67 12.34 -4.34 11.68 -4 11 C-2.68 11 -1.36 11 0 11 C0 9.68 0 8.36 0 7 C-0.99 7 -1.98 7 -3 7 C-3.33 5.68 -3.66 4.36 -4 3 C-3.01 2.67 -2.02 2.34 -1 2 C-0.67 1.34 -0.34 0.68 0 0 Z " fill="#4C6A53" transform="translate(17,12)"/>
<path d="M0 0 C2.475 0.99 2.475 0.99 5 2 C5 2.66 5 3.32 5 4 C5.99 4.33 6.98 4.66 8 5 C7.01 5.33 6.02 5.66 5 6 C6.25541557 8.51083114 7.50063488 8.87125446 10 10 C9.01 10.495 9.01 10.495 8 11 C7.01 10.67 6.02 10.34 5 10 C5 10.99 5 11.98 5 13 C4.34 13 3.68 13 3 13 C3.33 11.02 3.66 9.04 4 7 C3.01 7 2.02 7 1 7 C1 6.34 1 5.68 1 5 C0.01 4.67 -0.98 4.34 -2 4 C-1.34 3.34 -0.68 2.68 0 2 C0 1.34 0 0.68 0 0 Z " fill="#749382" transform="translate(18,12)"/>
<path d="M0 0 C0 0.66 0 1.32 0 2 C-0.66 2 -1.32 2 -2 2 C-2.33 2.99 -2.66 3.98 -3 5 C-3.66 5 -4.32 5 -5 5 C-5 5.66 -5 6.32 -5 7 C-5.66 7 -6.32 7 -7 7 C-7.33 7.66 -7.66 8.32 -8 9 C-8.66 9 -9.32 9 -10 9 C-9.50233954 5.31731261 -8.93714041 3.34971233 -6 1 C-4 0 -4 0 0 0 Z " fill="#D3EBCD" transform="translate(18,6)"/>
<path d="M0 0 C2.38564077 0.57584432 4.66682784 1.22227595 7 2 C7 3.32 7 4.64 7 6 C4.36 6.33 1.72 6.66 -1 7 C-1 6.01 -1 5.02 -1 4 C0.65 4.33 2.3 4.66 4 5 C4 4.34 4 3.68 4 3 C2.68 2.34 1.36 1.68 0 1 C0 0.67 0 0.34 0 0 Z " fill="#ACB3B3" transform="translate(10,17)"/>
<path d="M0 0 C3 1 3 1 4.25 3.4375 C5 6 5 6 4 8 C3.01 8 2.02 8 1 8 C-0.42944945 5.64561267 -1.08661261 4.51967567 -0.625 1.75 C-0.41875 1.1725 -0.2125 0.595 0 0 Z " fill="#1D3528" transform="translate(22,8)"/>
<path d="M0 0 C-0.33 1.65 -0.66 3.3 -1 5 C-3.64 4.67 -6.28 4.34 -9 4 C-9 3.01 -9 2.02 -9 1 C-5.846632 0.29925156 -3.27275026 0 0 0 Z " fill="#091116" transform="translate(23,0)"/>
<path d="M0 0 C1.98 0.495 1.98 0.495 4 1 C3.67 2.32 3.34 3.64 3 5 C1.68 5 0.36 5 -1 5 C-0.67 3.35 -0.34 1.7 0 0 Z " fill="#3F8063" transform="translate(19,7)"/>
<path d="M0 0 C1.65 0 3.3 0 5 0 C5 0.33 5 0.66 5 1 C7.31 1.33 9.62 1.66 12 2 C12 2.33 12 2.66 12 3 C10.56465159 3.2226746 9.12654475 3.42761906 7.6875 3.625 C6.88699219 3.74101562 6.08648437 3.85703125 5.26171875 3.9765625 C3 4 3 4 0 2 C0 1.34 0 0.68 0 0 Z " fill="#698061" transform="translate(8,23)"/>
<path d="M0 0 C2 3.75 2 3.75 2 6 C2.99 6.33 3.98 6.66 5 7 C4.360625 7.12375 3.72125 7.2475 3.0625 7.375 C2.0415625 7.684375 2.0415625 7.684375 1 8 C0.67 8.66 0.34 9.32 0 10 C-1.2380014 6.42355152 -0.74926071 3.66305234 0 0 Z " fill="#465748" transform="translate(6,14)"/>
<path d="M0 0 C0.66 0.66 1.32 1.32 2 2 C3.31747324 2.69748583 4.64914193 3.36959957 6 4 C5.01 4.495 5.01 4.495 4 5 C3.01 4.67 2.02 4.34 1 4 C1 4.99 1 5.98 1 7 C0.34 7 -0.32 7 -1 7 C-0.67 4.69 -0.34 2.38 0 0 Z " fill="#767E7B" transform="translate(22,18)"/>
<path d="M0 0 C0.33 0.99 0.66 1.98 1 3 C1.66 3.33 2.32 3.66 3 4 C1.35 4.33 -0.3 4.66 -2 5 C-2.66 3.68 -3.32 2.36 -4 1 C-2.68 0.67 -1.36 0.34 0 0 Z " fill="#333F35" transform="translate(26,16)"/>
</svg>
